<?xml version="1.0" encoding="UTF-8"?>
<svg width="122px" height="24px" viewBox="0 0 122 24" version="1.1" xmlns="http://www.w3.org/2000/svg" xmlns:xlink="http://www.w3.org/1999/xlink">
    <!-- Generator: Sketch 40.1 (33804) - http://www.bohemiancoding.com/sketch -->
    <title>Group</title>
    <desc>Created with Sketch.</desc>
    <defs></defs>
    <g id="Page-1" stroke="none" stroke-width="1" fill="none" fill-rule="evenodd">
        <g id="Artboard" transform="translate(-346.000000, -73.000000)" fill="#FFFFFF">
            <g id="Group" transform="translate(346.000000, 73.000000)">
                <path d="M5.67479594,23.5269368 C4.26881181,23.5269368 2.47125504,23.2183733 0.28207169,22.601237 L0.28207169,19.6389974 C2.64110547,20.7403484 4.58020215,21.2910156 6.0994199,21.2910156 C7.26950066,21.2910156 8.21074101,20.9824521 8.92316922,20.3653158 C9.63559742,19.7481794 9.99180617,18.93642 9.99180617,17.930013 C9.99180617,17.1039998 9.75826533,16.4014243 9.29117664,15.8222656 C8.82408796,15.2431069 7.96305354,14.597497 6.70804757,13.8854167 L5.26432612,13.045166 C3.48089658,12.0197703 2.22355044,11.053729 1.49224997,10.1470133 C0.760949496,9.24029766 0.395304746,8.18406093 0.395304746,6.97827148 C0.395304746,5.35472821 0.980336347,4.01841074 2.1504171,2.96927897 C3.32049786,1.92014721 4.81138484,1.39558919 6.62312278,1.39558919 C8.23670189,1.39558919 9.93989873,1.66617568 11.7327644,2.20735677 L11.7327644,4.94173177 C9.52470878,4.0682465 7.8781279,3.63151042 6.79297236,3.63151042 C5.76443364,3.63151042 4.91519422,3.90684403 4.24522862,4.45751953 C3.57526303,5.00819503 3.24028526,5.7012762 3.24028526,6.53678385 C3.24028526,7.23936983 3.48562109,7.86124404 3.97630012,8.40242513 C4.46697914,8.94360622 5.36339853,9.58921608 6.66558518,10.3392741 L8.16592316,11.1937663 C9.9776611,12.2286564 11.2420842,13.2065655 11.9592305,14.1275228 C12.6763768,15.0484801 13.0349445,16.1545617 13.0349445,17.4458008 C13.0349445,19.278221 12.36263,20.7498317 11.0179807,21.8606771 C9.67333148,22.9715225 7.8922877,23.5269368 5.67479594,23.5269368 L5.67479594,23.5269368 Z M17.3940127,23 L12.9920777,7.53369141 L15.7238252,7.53369141 L19.0925086,19.5108236 L22.7301205,7.53369141 L25.5184844,7.53369141 L28.7031641,19.5108236 L32.5672421,7.53369141 L34.9592904,7.53369141 L29.9487277,23 L27.1462096,23 L23.8907593,11.0228678 L20.210685,23 L17.3940127,23 Z M47.5560634,22.5015462 C45.6877086,23.0712105 44.0883077,23.3560384 42.7578127,23.3560384 C40.4931402,23.3560384 38.6460445,22.598871 37.21647,21.0845133 C35.7868956,19.5701557 35.072119,17.6072169 35.072119,15.195638 C35.072119,12.85052 35.7019716,10.9279318 36.9616957,9.42781576 C38.2214197,7.92769975 39.8326156,7.17765299 41.7953317,7.17765299 C43.6542503,7.17765299 45.0908803,7.84225138 46.1052649,9.1714681 C47.1196494,10.5006848 47.626834,12.3900431 47.626834,14.8395996 L47.6126799,15.7083333 L37.9170996,15.7083333 C38.3228534,19.3826681 40.1109741,21.2198079 43.2815155,21.2198079 C44.4421602,21.2198079 45.8669952,20.9064973 47.5560634,20.2798665 L47.5560634,22.5015462 Z M38.0444867,13.6005859 L44.8243159,13.6005859 C44.8243159,10.7237812 43.7580487,9.28540039 41.6254821,9.28540039 C39.4834794,9.28540039 38.2898263,10.7237812 38.0444867,13.6005859 L38.0444867,13.6005859 Z M58.7091149,21.034668 C57.038919,22.582256 55.4300821,23.3560384 53.8825559,23.3560384 C52.6086777,23.3560384 51.5518464,22.9549058 50.7120304,22.1526286 C49.8722143,21.3503513 49.4523126,20.3368388 49.4523126,19.1120605 C49.4523126,17.4220564 50.1576531,16.123716 51.5683553,15.2170003 C52.9790575,14.3102846 55.0007192,13.8569336 57.6334009,13.8569336 L58.2986451,13.8569336 L58.2986451,11.9912923 C58.2986451,10.1968498 57.3833537,9.29964193 55.5527435,9.29964193 C54.0807064,9.29964193 52.4907415,9.75536654 50.782801,10.6668294 L50.782801,8.34545898 C52.6605919,7.57641217 54.4204047,7.19189453 56.0622922,7.19189453 C57.7796688,7.19189453 59.046451,7.5811593 59.8626766,8.35970052 C60.6789023,9.13824174 61.087009,10.3487602 61.087009,11.9912923 L61.087009,18.9981283 C61.087009,20.6026827 61.5776807,21.4049479 62.5590388,21.4049479 C62.6817085,21.4049479 62.8609924,21.3859594 63.0968958,21.3479818 L63.2950536,22.9003092 C62.6628326,23.2041302 61.964569,23.3560384 61.2002421,23.3560384 C59.8980555,23.3560384 59.067688,22.582256 58.7091149,21.034668 L58.7091149,21.034668 Z M58.2986451,19.5108236 L58.2986451,15.5089518 L57.3644724,15.4804687 C55.8358185,15.4804687 54.5997033,15.7724173 53.6560898,16.3563232 C52.7124763,16.9402292 52.2406766,17.7068909 52.2406766,18.6563314 C52.2406766,19.3304341 52.4765765,19.9000899 52.9483832,20.3653158 C53.42019,20.8305416 53.9957856,21.063151 54.6751873,21.063151 C55.8358319,21.063151 57.0436391,20.5457137 58.2986451,19.5108236 L58.2986451,19.5108236 Z M69.7489333,23.3560384 C68.3335131,23.3560384 67.2295018,22.9477851 66.4368665,22.1312663 C65.6442311,21.3147474 65.2479194,20.180183 65.2479194,18.7275391 L65.2479194,9.6414388 L63.3229575,9.6414388 L63.3229575,7.53369141 L65.2479194,7.53369141 L65.2479194,4.72810872 L68.0362834,4.45751953 L68.0362834,7.53369141 L72.0560568,7.53369141 L72.0560568,9.6414388 L68.0362834,9.6414388 L68.0362834,18.2148437 C68.0362834,20.237152 68.9043948,21.248291 70.6406437,21.248291 C71.0086529,21.248291 71.4568626,21.1865783 71.9852862,21.063151 L71.9852862,23 C71.1265979,23.2373601 70.3811544,23.3560384 69.7489333,23.3560384 L69.7489333,23.3560384 Z" id="Sweat"></path>
                <path d="M91.8263461,22.4303385 C89.2880258,23.1614077 87.0752853,23.5269368 85.1880583,23.5269368 C81.8571026,23.5269368 79.3023073,22.5727634 77.5235959,20.664388 C75.7448844,18.7560126 74.855542,16.0216649 74.855542,12.461263 C74.855542,8.96732194 75.7566794,6.24958924 77.5589812,4.3079834 C79.361283,2.36637755 81.8901293,1.39558919 85.1455959,1.39558919 C87.2781624,1.39558919 89.4956209,1.71364699 91.7980379,2.34977214 L91.7980379,5.11263021 C88.9105805,4.12521208 86.69784,3.63151042 85.15975,3.63151042 C82.8950776,3.63151042 81.1376238,4.40529283 79.8873359,5.95288086 C78.637048,7.50046889 78.0119134,9.67940218 78.0119134,12.4897461 C78.0119134,15.2716068 78.681869,17.4339251 80.0218001,18.976766 C81.3617313,20.5196068 83.239494,21.2910156 85.6551446,21.2910156 C86.6459388,21.2910156 87.7169241,21.1153718 88.8681326,20.7640788 L88.8681326,13.8996582 L91.8263461,13.8996582 L91.8263461,22.4303385 Z M101.47906,23.3560384 C99.2804402,23.3560384 97.5253454,22.6226066 96.2137226,21.155721 C94.9020998,19.6888354 94.2462983,17.7258966 94.2462983,15.2668457 C94.2462983,12.7793116 94.9044588,10.8116256 96.2207997,9.36372884 C97.5371405,7.91583206 99.3229023,7.19189453 101.578139,7.19189453 C103.833375,7.19189453 105.619137,7.91583206 106.935478,9.36372884 C108.251818,10.8116256 108.909979,12.7698173 108.909979,15.2383626 C108.909979,17.7638744 108.249459,19.7481753 106.9284,21.1913249 C105.607342,22.6344744 103.790913,23.3560384 101.47906,23.3560384 L101.47906,23.3560384 Z M101.521522,21.248291 C104.475032,21.248291 105.951765,19.2450016 105.951765,15.2383626 C105.951765,11.2791957 104.493904,9.29964193 101.578139,9.29964193 C98.671809,9.29964193 97.218666,11.28869 97.218666,15.2668457 C97.218666,19.2544958 98.652937,21.248291 101.521522,21.248291 L101.521522,21.248291 Z" id="Go"></path>
                <path d="M112.384724,7.11529333 C112.384724,7.11529333 114.455271,3.73902507 114.455271,2.58843184 C114.455271,1.43783861 113.528255,0.505098508 112.384724,0.505098508 C111.241192,0.505098508 110.314176,1.43783861 110.314176,2.58843184 C110.314176,3.73902507 112.384724,7.11529333 112.384724,7.11529333 Z" id="Oval-2" transform="translate(112.384724, 3.810196) rotate(45.000000) translate(-112.384724, -3.810196) "></path>
                <path d="M118.40401,12.1807044 C118.40401,12.1807044 120.474557,8.80443611 120.474557,7.65384288 C120.474557,6.50324965 119.547542,5.57050955 118.40401,5.57050955 C117.260478,5.57050955 116.333463,6.50324965 116.333463,7.65384288 C116.333463,8.80443611 118.40401,12.1807044 118.40401,12.1807044 Z" id="Oval-2" transform="translate(118.404010, 8.875607) rotate(85.000000) translate(-118.404010, -8.875607) "></path>
            </g>
        </g>
    </g>
</svg>